# xmcd
#
# Track frame offsets:
#	150
#	12162
#	23695
#	37370
#	48162
#	58835
#	71185
#	80465
#	91355
#	101957
#	112597
#	126307
#	134887
#	148500
#	159497
#	170590
#
# Disc length: 2414
#
# Revision: 1
# Processed by: cddbd v1.5.1PL0 Copyright (c) Steve Scherf et al.
# Submitted via: CDex 1.50beta10
# Normalized: r0:DSETVAR1,TDELIM( - )
#
DISCID=e5096c10
DTITLE=Various Artist - Whole Lotta Blues: Crescent City Blues
DYEAR=1999
DGENRE=Blues
TTITLE0=The Fat Man - Fats Domino
TTITLE1=Blues Jumped a Rabbit - Joe Turner
TTITLE2=C.C. Rider - Snooks Eaglin
TTITLE3=Jump Children - Dave Bartholomew
TTITLE4=Wish Someone Would Care - Irma Thomas
TTITLE5=I Hear You Knockin' - Smiley Lewis
TTITLE6=Let the Four Winds Blow - Roy Brown
TTITLE7=Tipitina - Professor Longhair
TTITLE8=(I Don't Know Why) But I Do - Henry' Frogman' Clarence
TTITLE9=Every Dog Has His Day - Crayton, Pee Wee
TTITLE10=The Things That I Used to Do - Guitar Slim
TTITLE11=Java - Allen Toussaint
TTITLE12=I'll Never Be Free - Gayten, Paul and Laurie, Annie
TTITLE13=(Every Time I Hear) That Mellow Saxophone - Roy Montrell
TTITLE14=Jock-A-Mo - Crawford, Sugar Boy
TTITLE15=Bad Dog - Webb, "Boogie Bill"
EXTD=YEAR: 1999
EXTT0=
EXTT1=
EXTT2=
EXTT3=
EXTT4=
EXTT5=
EXTT6=
EXTT7=
EXTT8=
EXTT9=
EXTT10=
EXTT11=
EXTT12=
EXTT13=
EXTT14=
EXTT15=
PLAYORDER=
